<svg version="1.1" xmlns="http://www.w3.org/2000/svg" xmlns:xlink="http://www.w3.org/1999/xlink" viewBox="0 0 172 172"><g fill="none" fill-rule="nonzero" stroke="none" stroke-width="1" stroke-linecap="butt" stroke-linejoin="miter" stroke-miterlimit="10" stroke-dasharray="" stroke-dashoffset="0" font-family="none" font-weight="none" font-size="none" text-anchor="none" style="mix-blend-mode: normal"><path d="M0,172v-172h172v172z" fill="none"></path><g fill="#ffffff"><path d="M35.83333,14.33333c-7.83362,0 -14.33333,6.49972 -14.33333,14.33333v99.59147c0,5.54764 3.22977,10.6421 8.27246,12.98958l44.1058,20.59017c7.6786,3.58144 16.56488,3.58144 24.24349,0l44.1058,-20.59017c5.04153,-2.3489 8.27246,-7.4383 8.27246,-12.98958v-99.59147c0,-7.83362 -6.49972,-14.33333 -14.33333,-14.33333zM35.83333,28.66667h100.33333v99.59147l-44.1058,20.59017c-3.84539,1.79356 -8.27635,1.79356 -12.12174,0l-44.1058,-20.59017zM114.40072,43c-6.6435,0 -9.93815,3.19421 -9.93815,9.64421v30.86426c0,6.45 3.30182,9.63021 9.93815,9.63021h4.01725c6.56467,0.00717 9.79817,-3.09343 9.79817,-9.36426v-9.1123h-7.92253v7.44661c0,2.11417 -1.01408,3.10742 -3.13542,3.10742h-1.55371c-2.20017,0 -3.2194,-0.98609 -3.2194,-3.10742v-15.35514v-10.10612v-3.09343c0,-1.462 1.19067,-2.63151 2.6455,-2.63151h2.63151c1.462,0 2.63151,1.17668 2.63151,2.63151v2.64551v5.26302h7.92253v-8.90234c0,-6.45 -3.2035,-9.56022 -9.85417,-9.56022zM43.78385,43.014v50.12468h15.83105v-7.90853h-7.92253v-13.19955h7.92253v-7.92252h-7.92253v-13.18555h7.92253v-7.90853zM64.89193,43.014v50.12468h7.92252l-0.014,-15.83106h4.21322c6.01283,0 8.98633,-2.99981 8.98633,-9.08431v-15.5651c0,-6.45717 -3.18088,-9.64421 -9.60222,-9.64421h-2.65951zM91.27702,43.014v50.12468h7.92253v-50.12468zM72.80045,50.92253h2.64551c1.462,0 2.63151,1.17668 2.63151,2.63151v13.19954c0,1.462 -1.17667,2.63151 -2.63151,2.63151h-2.64551zM52.01432,105.96028l-0.22396,0.014l-0.22396,0.028l-0.20996,0.02799l-0.22396,0.014l-0.20996,0.04199l-0.22396,0.028l-0.20996,0.04199l-0.19596,0.06999l-0.22396,0.04199l-0.19596,0.06999l-0.19596,0.04199l-0.19596,0.08399l-0.22396,0.05599l-0.16797,0.06999l-0.22396,0.11198l-0.18197,0.08399l-0.20996,0.08398l-0.19596,0.12598l-0.19596,0.09798l-0.19596,0.11198l-0.16797,0.11198l-0.18197,0.09798l-0.16797,0.13997l-0.18197,0.11199l-0.16797,0.12598l-0.15397,0.13997l-0.16797,0.13997l-0.15397,0.13997l-0.15397,0.15398l-0.15397,0.15397l-0.13997,0.13997l-0.13997,0.16797l-0.13997,0.15397l-0.12598,0.16797l-0.13997,0.18196l-0.12598,0.16797l-0.11198,0.18197l-0.11198,0.16797l-0.09798,0.18197l-0.11198,0.18196l-0.11198,0.18197l-0.08398,0.20996l-0.08398,0.19597l-0.09798,0.19596l-0.06999,0.19597l-0.09798,0.22396l-0.06999,0.18197l-0.05599,0.22396l-0.06999,0.20995l-0.04199,0.20996l-0.06999,0.20996l-0.04199,0.20996l-0.028,0.20996l-0.04199,0.20996l-0.014,0.25195l-0.014,0.22396v0.20996l-0.028,0.23795v0.22396v0.04199v0.22396v0.23796l0.028,0.22396l0.014,0.20995l0.014,0.22396l0.028,0.19597l0.04199,0.20996l0.02799,0.20996l0.04199,0.22396l0.06999,0.18197l0.04199,0.22396l0.05599,0.19596l0.04199,0.19597l0.08398,0.19597l0.08398,0.18196l0.06999,0.19597l0.09798,0.19597l0.08398,0.19597l0.08398,0.19597l0.11198,0.18196l0.11198,0.19597l0.09798,0.16797l0.11198,0.18197l0.13997,0.16797l0.09798,0.18196l0.13997,0.15397l0.12598,0.16797l0.13997,0.15397l0.13997,0.15398l0.15397,0.16797l0.15397,0.11198l0.15397,0.16797l0.15397,0.12598l0.15397,0.12598l0.18197,0.13997l0.16797,0.12598l0.16797,0.13998l0.18197,0.09798l0.16797,0.11197l0.19596,0.11199l0.18197,0.11197l0.19596,0.11199l0.19596,0.08398l0.19596,0.08399l0.19596,0.08399l0.20996,0.09798l0.20996,0.05599l0.18197,0.08399l0.20996,0.06998l0.20996,0.042l0.19596,0.06999l0.22396,0.04199l0.19596,0.04199l0.20996,0.042l0.22396,0.04199l0.22396,0.02799l0.20996,0.028l0.20996,0.014l0.25195,0.02799l0.20996,0.014h0.22396h0.23796h0.23796h0.23796l0.23796,-0.014l0.22396,-0.02799l0.23796,-0.014l0.20996,-0.028l0.25195,-0.02799l0.22396,-0.014l0.20996,-0.042l0.20996,-0.04199l0.19596,-0.04199l0.22396,-0.042l0.19596,-0.06998l0.22396,-0.06999l0.19596,-0.06998l0.19596,-0.05599l0.19596,-0.06999l0.18197,-0.09798l0.22396,-0.06999l0.19596,-0.09798l0.22396,-0.08399l0.19596,-0.11198l0.19596,-0.08398l0.19596,-0.11199l0.19596,-0.11197l0.19596,-0.09798l0.16797,-0.12598l0.18197,-0.09798l0.18197,-0.12598l0.16797,-0.12598l0.16797,-0.12598l0.15397,-0.11198l0.18197,-0.12598l0.13997,-0.13997v-0.20996v-0.22396v-0.20996v-0.19597v-0.22396v-0.22396v-0.22396v-0.20996v-0.22396v-0.19596v-0.20996v-0.22396v-0.22396v-0.20996v-0.22396v-0.20996v-0.20996v-0.22396v-0.20996v-0.20995v-0.22396v-0.22396v-0.20996v-0.20996v-0.20996v-0.22396v-0.20996v-0.22396v-0.22396v-0.19597v-0.22396v-0.20996v-0.22396h-0.20996h-0.22396h-0.20996h-0.20996h-0.22396h-0.22396h-0.22396h-0.20996h-0.20996h-0.22396h-0.22396h-0.20996h-0.22396h-0.20996h-0.22396h-0.22396h-0.20996h-0.22396h-0.20996h-0.22396h-0.22396h-0.20996h-0.20996h-0.22396h-0.22396h-0.22396h-0.20996h-0.22396h-0.20996h-0.22396h-0.20996h-0.22396h-0.22396v0.22396v0.19597v0.22396v0.20996v0.22396v0.19597v0.22396v0.20996v0.22396v0.19596v0.20996v0.22396v0.22396v0.19597v0.22396h0.22396h0.19596h0.22396h0.20996h0.22396h0.19596h0.20996h0.22396h0.22396h0.19596h0.20996h0.22396h0.22396h0.18197h0.22396v0.20996v0.22396v0.22396v0.20996v0.23795v0.22396v0.22396v0.20996v0.22396l-0.18197,0.11198l-0.13997,0.08398l-0.19596,0.09798l-0.18197,0.06999l-0.19596,0.09798l-0.19596,0.04199l-0.20996,0.06999l-0.22396,0.04199l-0.22396,0.042l-0.20996,0.014l-0.23796,0.02799l-0.23796,0.014h-0.26595h-0.23796l-0.25195,-0.014l-0.20996,-0.02799l-0.20996,-0.042l-0.22396,-0.04199l-0.22396,-0.05599l-0.20996,-0.06999l-0.19596,-0.09798l-0.19596,-0.06999l-0.19596,-0.09798l-0.18197,-0.11197l-0.16797,-0.11199l-0.18197,-0.12598l-0.16797,-0.12598l-0.15397,-0.13997l-0.13997,-0.15397l-0.13997,-0.13998l-0.13997,-0.16797l-0.12598,-0.16797l-0.11198,-0.18196l-0.11198,-0.16797l-0.09798,-0.19597l-0.08398,-0.19596l-0.09798,-0.22396l-0.05599,-0.16797l-0.06999,-0.19596l-0.04199,-0.20996l-0.04199,-0.19597l-0.05599,-0.19597l-0.014,-0.22396l-0.028,-0.18197l-0.014,-0.22396v-0.22396v-0.04199v-0.23795l0.014,-0.22396l0.028,-0.20996l0.04199,-0.25195l0.04199,-0.19597l0.04199,-0.20996l0.06999,-0.22396l0.08398,-0.19597l0.06999,-0.19596l0.08398,-0.19597l0.11198,-0.18197l0.11198,-0.19596l0.09798,-0.16797l0.11198,-0.15397l0.13997,-0.18197l0.13997,-0.15397l0.13997,-0.15398l0.15397,-0.12598l0.15397,-0.12598l0.13997,-0.13997l0.18197,-0.11198l0.16797,-0.09798l0.18197,-0.12598l0.19596,-0.08399l0.19596,-0.08399l0.19596,-0.05599l0.19596,-0.06999l0.19596,-0.04199l0.22396,-0.05599l0.19596,-0.014l0.20996,-0.02799h0.22396h0.23796l0.23796,0.02799l0.23796,0.014l0.22396,0.028l0.20996,0.04199l0.22396,0.05599l0.19596,0.04199l0.19596,0.05599l0.19596,0.06999l0.16797,0.05599l0.18197,0.09798l0.16797,0.08399l0.19596,0.11198l0.18197,0.11198l0.16797,0.11198l0.18197,0.09798l0.16797,0.13997l0.18197,0.11198l0.16797,0.15398l0.18197,0.12598l0.12598,-0.16797l0.15397,-0.16797l0.12598,-0.16797l0.15397,-0.16797l0.12598,-0.18197l0.13997,-0.15397l0.13997,-0.18197l0.13997,-0.16797l0.15397,-0.18197l0.12598,-0.13997l0.12598,-0.18197l0.16797,-0.18196l0.12598,-0.13998l0.12598,-0.18196l0.15397,-0.16797l0.13997,-0.18196l0.13997,-0.15398l0.13997,-0.16797l-0.18197,-0.13998l-0.16797,-0.15397l-0.18197,-0.12598l-0.16797,-0.13997l-0.16797,-0.09798l-0.18197,-0.13997l-0.19596,-0.11199l-0.16797,-0.09798l-0.19596,-0.11198l-0.18197,-0.11198l-0.19596,-0.08399l-0.19596,-0.11198l-0.19596,-0.09798l-0.19596,-0.08399l-0.19596,-0.08398l-0.19596,-0.06999l-0.18197,-0.05599l-0.19596,-0.04199l-0.19596,-0.06999l-0.19596,-0.04199l-0.19596,-0.04199l-0.19596,-0.05599l-0.20996,-0.04199l-0.22396,-0.042l-0.19596,-0.014l-0.23796,-0.04199l-0.22396,-0.02799h-0.20996l-0.23796,-0.028l-0.23796,-0.014h-0.25195h-0.23796h-0.20996zM120.72754,106.00228l-0.20996,0.02799l-0.22396,0.014l-0.20996,0.02799l-0.22396,0.014l-0.19596,0.042l-0.20996,0.04199l-0.20996,0.05599l-0.19597,0.04199l-0.16797,0.04199l-0.19597,0.06999l-0.22396,0.08399l-0.20996,0.05599l-0.19597,0.09798l-0.19597,0.09798l-0.19596,0.09798l-0.19597,0.11198l-0.18197,0.09798l-0.16797,0.13997l-0.18197,0.12598l-0.13997,0.11198l-0.18197,0.15397l-0.15397,0.16797l-0.15397,0.16797l-0.15398,0.16797l-0.12598,0.18197l-0.12598,0.16797l-0.11198,0.19597l-0.11198,0.19597l-0.08399,0.19596l-0.09798,0.19597l-0.08398,0.19597l-0.042,0.20996l-0.05599,0.18196l-0.05599,0.20996l-0.04199,0.18197l-0.014,0.22396l-0.028,0.20996l-0.014,0.20996v0.22396v0.04199v0.23795l0.014,0.23795l0.028,0.22396l0.014,0.22396l0.04199,0.19597l0.05599,0.20996l0.05599,0.18197l0.06999,0.19596l0.05599,0.18197l0.09798,0.13997l0.11198,0.19597l0.09798,0.18197l0.11198,0.15397l0.12598,0.15397l0.13998,0.15398l0.15397,0.15397l0.15397,0.15397l0.13998,0.12598l0.18196,0.11197l0.16797,0.12598l0.20995,0.11198l0.16797,0.11198l0.20996,0.11198l0.20996,0.11198l0.20996,0.08398l0.20996,0.08399l0.22396,0.08399l0.23795,0.09798l0.20996,0.05599l0.18196,0.06999l0.19597,0.06998l0.22396,0.042l0.19597,0.06999l0.22396,0.05599l0.20995,0.04199l0.22396,0.06999l0.20996,0.04199l0.23795,0.06999l0.22396,0.04199l0.23796,0.06999l0.22396,0.02799l0.20995,0.08399l0.19597,0.04199l0.19597,0.05599l0.18197,0.04199l0.13997,0.042l0.26595,0.11198l0.22396,0.09798l0.19597,0.08398l0.16797,0.08399l0.18197,0.12598l0.15398,0.13997l0.11197,0.15398l0.08399,0.20996l0.014,0.26595v0.05599l-0.014,0.20995l-0.06998,0.19597l-0.08399,0.18197l-0.12598,0.13997l-0.18197,0.13997l-0.15397,0.08399l-0.16797,0.06999l-0.19597,0.04199l-0.19596,0.04199l-0.22396,0.042l-0.23795,0.02799h-0.26595h-0.20996l-0.23795,-0.02799h-0.22396l-0.20996,-0.042l-0.25195,-0.02799l-0.20996,-0.04199l-0.22396,-0.042l-0.20996,-0.04199l-0.19596,-0.05599l-0.22396,-0.06999l-0.20996,-0.06999l-0.20996,-0.08398l-0.19597,-0.06999l-0.18196,-0.08399l-0.20996,-0.08399l-0.19597,-0.09798l-0.16797,-0.09798l-0.19596,-0.09798l-0.18197,-0.09798l-0.18197,-0.13997l-0.18196,-0.11198l-0.19597,-0.12598l-0.16797,-0.13997l-0.20995,-0.12598l-0.16797,-0.12598l-0.13997,0.16797l-0.13997,0.15398l-0.13998,0.18197l-0.13997,0.16797l-0.13997,0.15397l-0.12598,0.18197l-0.15398,0.16797l-0.12598,0.15397l-0.16797,0.16797l-0.12598,0.16797l-0.15398,0.16797l-0.12598,0.18197l-0.12598,0.15397l-0.15397,0.16797l-0.12598,0.18197l-0.16797,0.15397l-0.12598,0.16797l0.18197,0.15398l0.13997,0.12598l0.18196,0.13997l0.16797,0.12598l0.18197,0.12598l0.16797,0.13998l0.18197,0.11198l0.16797,0.09798l0.19597,0.12598l0.18197,0.09798l0.19596,0.11197l0.19597,0.09798l0.19597,0.09798l0.19596,0.08399l0.19597,0.09798l0.22396,0.08399l0.18197,0.05599l0.22396,0.06999l0.19597,0.09798l0.20996,0.05599l0.22396,0.06999l0.19596,0.04199l0.22396,0.06999l0.20996,0.04199l0.22396,0.042l0.22396,0.04199l0.20996,0.04199l0.22396,0.02799l0.20996,0.042l0.23795,0.014l0.22396,0.02799l0.20996,0.028h0.25195l0.20996,0.014h0.20996h0.25195h0.23795h0.22396l0.20996,-0.014l0.23795,-0.028l0.22396,-0.02799l0.19597,-0.014l0.20996,-0.02799l0.22396,-0.042l0.19597,-0.04199l0.19596,-0.04199l0.22396,-0.042l0.19597,-0.06999l0.22396,-0.06998l0.20996,-0.05599l0.20996,-0.08398l0.22396,-0.09798l0.19597,-0.09798l0.19596,-0.09798l0.19597,-0.11198l0.16797,-0.12598l0.18196,-0.11198l0.16797,-0.12598l0.15397,-0.12598l0.18197,-0.16797l0.12598,-0.12598l0.15397,-0.15397l0.12598,-0.15398l0.11198,-0.16797l0.13998,-0.16797l0.09798,-0.18196l0.11197,-0.18197l0.09798,-0.19597l0.06999,-0.16797l0.09798,-0.20996l0.06999,-0.20996l0.04199,-0.19597l0.05599,-0.22396l0.042,-0.20996l0.02799,-0.25195l0.014,-0.20996l0.02799,-0.25195v-0.23795v-0.04199v-0.23796l-0.02799,-0.23795l-0.014,-0.22396l-0.04199,-0.22396l-0.042,-0.22396l-0.04199,-0.18196l-0.06999,-0.20996l-0.06998,-0.18197l-0.08399,-0.18197l-0.09798,-0.19596l-0.12598,-0.16797l-0.12598,-0.20996l-0.12598,-0.16797l-0.15398,-0.15398l-0.15397,-0.18196l-0.16797,-0.15397l-0.18196,-0.15398l-0.16797,-0.09798l-0.18196,-0.13997l-0.16797,-0.11198l-0.19597,-0.09798l-0.19596,-0.12598l-0.22396,-0.09798l-0.20996,-0.08399l-0.22396,-0.11198l-0.23795,-0.08398l-0.19597,-0.06999l-0.19597,-0.06999l-0.22396,-0.06998l-0.19597,-0.05599l-0.20996,-0.06998l-0.22396,-0.05599l-0.22396,-0.04199l-0.23795,-0.08399l-0.20996,-0.05599l-0.23795,-0.04199l-0.25195,-0.06998l-0.23795,-0.05599l-0.23795,-0.06999l-0.20996,-0.04199l-0.19597,-0.06999l-0.20996,-0.04199l-0.16797,-0.05599l-0.16797,-0.05599l-0.26595,-0.08399l-0.23795,-0.08399l-0.22396,-0.09798l-0.16797,-0.11198l-0.19596,-0.09798l-0.15398,-0.16797l-0.08398,-0.12598l-0.11199,-0.23795l-0.02799,-0.27995v-0.04199l0.02799,-0.22396l0.08399,-0.19597l0.12598,-0.19596l0.19597,-0.18197l0.15398,-0.08399l0.18196,-0.08398l0.19597,-0.042l0.20996,-0.04199l0.23795,-0.05599h0.26595h0.22396l0.18197,0.02799l0.22396,0.028l0.22396,0.014l0.22396,0.04199l0.20996,0.05599l0.22396,0.02799l0.20996,0.06999l0.22396,0.06998l0.23795,0.06999l0.16797,0.08399l0.20996,0.05599l0.16797,0.08399l0.19596,0.09798l0.16797,0.08399l0.19597,0.08398l0.18196,0.12598l0.19597,0.08399l0.16797,0.12598l0.18196,0.11198l0.19597,0.11198l0.16797,0.12598l0.13998,-0.18196l0.09798,-0.16797l0.13998,-0.16797l0.12598,-0.18197l0.13997,-0.19597l0.09798,-0.18196l0.13997,-0.16797l0.12598,-0.16797l0.11198,-0.18197l0.12598,-0.18197l0.12598,-0.16797l0.11198,-0.18197l0.12598,-0.19596l0.13997,-0.18197l0.12598,-0.16797l0.11198,-0.16797l0.13997,-0.18197l-0.18196,-0.12598l-0.16797,-0.12598l-0.18196,-0.13997l-0.18197,-0.11198l-0.18197,-0.12598l-0.18196,-0.11198l-0.19597,-0.11198l-0.19597,-0.11198l-0.18196,-0.08399l-0.18197,-0.11198l-0.22396,-0.08399l-0.19597,-0.08398l-0.19596,-0.09798l-0.19597,-0.05599l-0.22396,-0.09798l-0.18197,-0.04199l-0.20996,-0.05599l-0.20996,-0.06998l-0.20996,-0.042l-0.20995,-0.04199l-0.20996,-0.04199l-0.20996,-0.05599l-0.20996,-0.04199l-0.23795,-0.014l-0.22396,-0.042l-0.23795,-0.02799h-0.20996l-0.23795,-0.014l-0.25196,-0.02799h-0.23795h-0.23795h-0.23795zM67.77539,106.14225l-0.08398,0.20996l-0.08398,0.19597l-0.09798,0.23795l-0.06999,0.22396l-0.08398,0.19596l-0.08398,0.19597l-0.08398,0.20996l-0.08398,0.19597l-0.09798,0.18196l-0.08398,0.22396l-0.08398,0.19597l-0.06999,0.19597l-0.08398,0.20996l-0.08398,0.19597l-0.09798,0.18196l-0.08398,0.22396l-0.08398,0.20996l-0.08398,0.19597l-0.09798,0.18196l-0.05599,0.20996l-0.08398,0.18197l-0.09798,0.22396l-0.08398,0.20996l-0.08398,0.19597l-0.08398,0.19596l-0.08398,0.20996l-0.08398,0.19597l-0.06999,0.22396l-0.08398,0.19597l-0.08398,0.19596l-0.11198,0.18197l-0.08398,0.19597l-0.08398,0.19597l-0.08398,0.22396l-0.09798,0.19596l-0.06999,0.19597l-0.08398,0.19597l-0.08398,0.19596l-0.09798,0.19597l-0.08398,0.19597l-0.08398,0.22396l-0.08398,0.19597l-0.08398,0.20996l-0.06999,0.19596l-0.08398,0.19597l-0.08398,0.20996l-0.08398,0.22396l-0.08398,0.19597l-0.08398,0.19596l-0.09798,0.20996l-0.08398,0.19597l-0.05599,0.19597l-0.11198,0.18197l-0.08398,0.19596l-0.08398,0.19597l-0.08398,0.20996l-0.09798,0.19597l-0.08398,0.19596l-0.08398,0.22396l-0.09798,0.18197l-0.08398,0.19597l-0.08398,0.20996l-0.09798,0.19596l-0.08398,0.18197l-0.08398,0.22396l-0.028,0.13997l-0.09798,0.19597l-0.06999,0.20996l-0.08398,0.19597l-0.08398,0.18196l-0.09798,0.22396l-0.08398,0.19597l-0.08398,0.20996l-0.08398,0.19597l-0.08398,0.19596l-0.06999,0.20996l-0.08398,0.19597l-0.09798,0.19597l-0.08398,0.20996l-0.08398,0.19596h0.22396h0.20996h0.22396h0.22396h0.23796h0.20996h0.22396h0.22396h0.22396h0.20996h0.20996h0.20996h0.20996h0.22396h0.23796h0.22396h0.20996h0.22396h0.20996h0.22396l0.08398,-0.19596l0.05599,-0.20996l0.08398,-0.19597l0.09798,-0.22396l0.05599,-0.19597l0.08398,-0.19597l0.08398,-0.20995l0.06999,-0.19597l0.08398,-0.19597l0.08398,-0.20996l0.06999,-0.19596l0.08398,-0.22396l0.08398,-0.19597l0.06999,-0.20996l0.08398,-0.19597h0.20996h0.22396h0.22396h0.20996h0.20996h0.20996h0.22396h0.20996h0.22396h0.22396h0.20996h0.20996h0.22396h0.22396h0.19596h0.22396h0.22396h0.20996h0.22396h0.22396h0.22396h0.20996h0.22396h0.22396h0.19597h0.20996h0.22396h0.20996h0.22396l0.08399,0.19597l0.05599,0.20996l0.08399,0.19597l0.09798,0.22396l0.05599,0.19596l0.08399,0.20996l0.08399,0.19597l0.06998,0.19597l0.08399,0.20995l0.08399,0.19597l0.06998,0.19597l0.08399,0.22396l0.08399,0.19597l0.06998,0.20996l0.08399,0.19596h0.22396h0.20996h0.20996h0.20996h0.22396h0.22396h0.20996h0.19596h0.20996h0.22396h0.20996h0.22396h0.22396h0.19597h0.22396h0.20996h0.22396h0.20996h0.20996h0.22396h0.20996l-0.08399,-0.19596l-0.08399,-0.20996l-0.08399,-0.19597l-0.05599,-0.22396l-0.09798,-0.19597l-0.08399,-0.19597l-0.08399,-0.20995l-0.08398,-0.19597l-0.08399,-0.19597l-0.08399,-0.22396l-0.09798,-0.20996l-0.05599,-0.19596l-0.08399,-0.19597l-0.08399,-0.20996l-0.09798,-0.19597l-0.08398,-0.22396l-0.08399,-0.20996l-0.08399,-0.19597l-0.09798,-0.19596l-0.05599,-0.20996l-0.08399,-0.19597l-0.09798,-0.22396l-0.08399,-0.19597l-0.08398,-0.20995l-0.08399,-0.19597l-0.08399,-0.19597l-0.08399,-0.20996l-0.06998,-0.20996l-0.08399,-0.20996l-0.08399,-0.19596l-0.08399,-0.19597l-0.08398,-0.20996l-0.09798,-0.19597l-0.08399,-0.22396l-0.08399,-0.19596l-0.05599,-0.20996l-0.09798,-0.19597l-0.08399,-0.19597l-0.13997,-0.09798l-0.08399,-0.20996l-0.05599,-0.16797l-0.08399,-0.19597l-0.09798,-0.19597l-0.05599,-0.20996l-0.08399,-0.19596l-0.08399,-0.19597l-0.09798,-0.22396l-0.08398,-0.20996l-0.08399,-0.19597l-0.08399,-0.19596l-0.08399,-0.20996l-0.06998,-0.19597l-0.08399,-0.22396l-0.08399,-0.19597l-0.08399,-0.19597l-0.08398,-0.20995l-0.08399,-0.19597l-0.09798,-0.19597l-0.11198,-0.16797l-0.05599,-0.20996l-0.09798,-0.19597l-0.08399,-0.19597l-0.08399,-0.19597l-0.09798,-0.19596l-0.08399,-0.22396l-0.08398,-0.19597l-0.08399,-0.19597l-0.06999,-0.20996l-0.08398,-0.19596l-0.08399,-0.19597l-0.08399,-0.22396l-0.08399,-0.20996l-0.08398,-0.19597l-0.08399,-0.19597l-0.09798,-0.20995l-0.02799,-0.15398l-0.08399,-0.22396l-0.08399,-0.19596l-0.09798,-0.19597l-0.08398,-0.20996h-0.23796h-0.19596h-0.25195h-0.20996h-0.22396h-0.18197h-0.22396h-0.22396h-0.20996h-0.19596h-0.22396h-0.22396h-0.20996h-0.19596h-0.22396h-0.20996h-0.20996h-0.20996zM80.33105,106.26823v0.20996v0.22396v0.22396v0.20996v0.22396v0.22396v0.20996v0.22396v0.22396v0.20995v0.20996v0.22396v0.22396v0.22396v0.20996v0.22396v0.22396v0.22396v0.18197v0.22396v0.22396v0.20996v0.22396v0.22396v0.20996v0.22396v0.20996v0.22396v0.22396v0.20995v0.22396v0.22396v0.20996v0.22396v0.22396v0.20996v0.22396v0.22396v0.20996v0.22396v0.20996v0.22396v0.22396v0.22396v0.20996v0.22396v0.20996v0.22396v0.22396v0.20995v0.22396v0.20996v0.22396v0.22396v0.19597v0.20996v0.22396v0.22396v0.20996v0.22396v0.22396v0.22396v0.20996v0.22396v0.22396v0.20996v0.20996v0.22396v0.22396v0.22396v0.20995v0.22396v0.22396h0.22396h0.22396h0.20996h0.20996h0.22396h0.22396h0.22396h0.20996h0.20996h0.22396h0.22396h0.20996h0.22396h0.22396h0.20996h0.22396h0.20995h0.22396h0.20996v-0.22396v-0.22396v-0.20995v-0.22396v-0.22396v-0.22396v-0.20996v-0.22396v-0.20996v-0.22396v-0.19597v-0.22396v-0.22396v-0.20996v-0.22396v-0.22396v-0.20996v-0.22396v-0.20996v-0.22396v-0.22396v-0.20996v-0.22396v-0.22396v-0.22396v-0.20995v-0.22396v-0.22396v-0.20996v-0.22396v-0.22396v-0.20996v-0.19597v-0.22396v-0.22396v-0.22396v-0.20996v-0.22396v-0.20996v-0.22396v-0.20995v-0.22396v-0.22396l0.13998,0.18196l0.09798,0.19597l0.13998,0.16797l0.11198,0.20996l0.11198,0.16797l0.12598,0.19597l0.12598,0.18196l0.11198,0.19597l0.12598,0.16797l0.11198,0.20996l0.12598,0.16797l0.11198,0.19597l0.13997,0.16797l0.09798,0.20996l0.12598,0.16797l0.11199,0.19597l0.12598,0.18197l0.13997,0.19597l0.11198,0.16797l0.12598,0.20996l0.11198,0.16797l0.12598,0.19597l0.11198,0.18197l0.12598,0.19597l0.11198,0.16797l0.13997,0.20996l0.09798,0.16797l0.13998,0.19597l0.09798,0.18197l0.13997,0.19597l0.11198,0.18196l0.12598,0.18197l0.11198,0.18196l0.12598,0.19597h0.08399l0.11198,-0.16797l0.12598,-0.20996l0.11198,-0.16797l0.13997,-0.18196l0.09798,-0.19597l0.13997,-0.16797l0.09798,-0.18196l0.11198,-0.19597l0.13997,-0.16797l0.09798,-0.18197l0.13998,-0.16797l0.11197,-0.20996l0.12598,-0.16797l0.11198,-0.18197l0.09798,-0.19596l0.13997,-0.16797l0.11198,-0.18197l0.12598,-0.19596l0.11198,-0.16797l0.12598,-0.18196l0.11198,-0.19597l0.11198,-0.18197l0.12598,-0.16797l0.11198,-0.19597l0.12598,-0.18197l0.11198,-0.16797l0.12598,-0.18197l0.11198,-0.19597l0.11198,-0.16797l0.12598,-0.18197l0.11197,-0.19596l0.12598,-0.18197l0.11198,-0.16797l0.12598,-0.19596l0.11198,-0.18197v0.22396v0.22396v0.20996v0.22396v0.22396v0.20996v0.20996v0.22396v0.22396v0.22396v0.20996v0.22396v0.22396v0.20995v0.22396v0.22396v0.20996v0.22396v0.22396v0.20996v0.22396v0.20996v0.22396v0.22396v0.22396v0.20996v0.22396v0.22396v0.20996v0.22396v0.22396v0.20996v0.22396v0.22396v0.20996v0.22396v0.20996v0.22396v0.22396v0.22396v0.20995v0.22396v0.22396h0.22396h0.20996h0.22396h0.23795h0.22396h0.20996h0.20995h0.22396h0.22396h0.23796h0.20995h0.22396h0.22396h0.22396h0.20996h0.23795h0.22396h0.20996h0.22396v-0.22396v-0.22396v-0.20995v-0.22396v-0.22396v-0.22396v-0.20996v-0.20996v-0.22396v-0.22396v-0.20996v-0.22396v-0.22396v-0.22396v-0.20996v-0.22396v-0.22396v-0.20996v-0.19597v-0.22396v-0.22396v-0.20996v-0.22396v-0.20995v-0.22396v-0.22396v-0.20996v-0.22396v-0.20996v-0.22396v-0.22396v-0.22396v-0.20996v-0.22396v-0.20996v-0.22396v-0.22396v-0.20996v-0.22396v-0.22396v-0.20996v-0.22396v-0.22396v-0.20995v-0.22396v-0.22396v-0.20996v-0.22396v-0.20996v-0.22396v-0.22396v-0.20996v-0.22396v-0.22396v-0.18197v-0.22396v-0.22396v-0.22396v-0.20996v-0.22396v-0.22396v-0.22396v-0.20996v-0.20995v-0.22396v-0.22396v-0.20996v-0.22396v-0.22396v-0.20996v-0.22396v-0.22396v-0.20996h-0.22396h-0.20996h-0.19596h-0.22396h-0.20996h-0.22396h-0.19597h-0.22396h-0.20996h-0.22396h-0.19596h-0.20996h-0.22396h-0.22396h-0.19597h-0.20996h-0.22396h-0.20996h-0.19597h-0.22396h-0.22396l-0.09798,0.16797l-0.11199,0.19597l-0.12598,0.18197l-0.11198,0.19597l-0.11198,0.16797l-0.11198,0.19597l-0.12598,0.18196l-0.11198,0.19597l-0.11198,0.16797l-0.09798,0.18196l-0.13997,0.19597l-0.09798,0.18197l-0.12598,0.18196l-0.09798,0.18197l-0.12598,0.19597l-0.12598,0.16797l-0.09798,0.18197l-0.11198,0.19597l-0.11198,0.18196l-0.12598,0.19597l-0.11198,0.16797l-0.11198,0.19596l-0.09798,0.18197l-0.13997,0.19597l-0.09798,0.16797l-0.12598,0.16797l-0.09798,0.20996l-0.12598,0.16797l-0.11198,0.19597l-0.11198,0.18196l-0.11198,0.19597l-0.12598,0.16797l-0.11198,0.19596l-0.11198,0.18197l-0.09798,-0.18197l-0.11198,-0.19596l-0.13997,-0.16797l-0.09798,-0.19597l-0.11198,-0.18196l-0.11198,-0.19597l-0.11198,-0.16797l-0.12598,-0.20996l-0.11198,-0.16797l-0.11198,-0.16797l-0.11198,-0.19597l-0.09798,-0.18197l-0.13998,-0.19596l-0.11197,-0.16797l-0.09798,-0.19597l-0.11198,-0.18196l-0.11198,-0.19597l-0.12598,-0.18197l-0.11199,-0.16797l-0.11197,-0.19597l-0.11199,-0.18197l-0.12598,-0.18196l-0.09798,-0.18197l-0.12598,-0.19597l-0.09798,-0.18196l-0.11197,-0.16797l-0.12598,-0.19597l-0.11198,-0.18196l-0.11198,-0.19597l-0.11198,-0.16797l-0.09798,-0.19597l-0.13997,-0.18197l-0.11198,-0.19597l-0.11198,-0.16797h-0.20996h-0.20995h-0.20996h-0.20996h-0.22396h-0.20996h-0.19597h-0.22396h-0.22396h-0.20996h-0.19597h-0.22396h-0.20995h-0.20996h-0.20996h-0.20996h-0.22396h-0.20996h-0.19597h-0.22396zM100.23535,106.26823v0.20996v0.22396v0.22396v0.20996v0.22396v0.22396v0.20996v0.22396v0.22396v0.20995v0.20996v0.22396v0.22396v0.22396v0.20996v0.22396v0.22396v0.22396v0.18197v0.22396v0.22396v0.20996v0.22396v0.22396v0.20996v0.22396v0.20996v0.22396v0.22396v0.20995v0.22396v0.22396v0.20996v0.22396v0.22396v0.20996v0.22396v0.22396v0.20996v0.22396v0.20996v0.22396v0.22396v0.22396v0.20996v0.22396v0.20996v0.22396v0.22396v0.20995v0.22396v0.20996v0.22396v0.22396v0.19597v0.20996v0.22396v0.22396v0.20996v0.22396v0.22396v0.22396v0.20996v0.22396v0.22396v0.20996v0.20996v0.22396v0.22396v0.22396v0.20995v0.22396v0.22396h0.20996h0.22396h0.20996h0.22396h0.22396h0.22396h0.20996h0.20996h0.22396h0.23795h0.20996h0.22396h0.22396h0.20995h0.22396h0.22396h0.20996h0.20996h0.22396h0.22396h0.22396h0.20996h0.20996h0.22396h0.20996h0.22396h0.22396h0.20996h0.23795h0.22396h0.22396h0.20996h0.22396h0.20996h0.22396h0.22396h0.20996h0.22396h0.22396h0.20995h0.20996h0.22396h0.22396h0.20996h0.22396h0.20996h0.22396h0.20996h0.25195h0.20996h0.22396h0.20996h0.22396h0.22396h0.20996h0.20996h0.22396h0.22396v-0.22396v-0.20995v-0.20996v-0.22396v-0.20996v-0.19597v-0.22396v-0.20996v-0.20996v-0.20996v-0.22396v-0.19596v-0.20996v-0.22396v-0.22396v-0.19597v-0.20996h-0.22396h-0.22396h-0.20996h-0.20996h-0.22396h-0.22396h-0.20996h-0.22396h-0.20996h-0.25195h-0.20996h-0.22396h-0.20996h-0.22396h-0.20996h-0.22396h-0.22396h-0.20996h-0.20995h-0.22396h-0.22396h-0.20996h-0.22396h-0.22396h-0.20996h-0.22396h-0.20996h-0.22396h-0.22396h-0.23795h-0.20996h-0.22396h-0.22396h-0.20996h-0.22396h-0.20996h-0.20996h-0.22396h-0.22396v-0.22396v-0.25195v-0.20996v-0.22396v-0.23795v-0.22396v-0.20996v-0.23795v-0.22396v-0.22396v-0.23795v-0.20996h0.22396h0.22396h0.20996h0.20996h0.22396h0.20996h0.22396h0.22396h0.19597h0.20996h0.22396h0.22396h0.20995h0.22396h0.20996h0.22396h0.20996h0.22396h0.22396h0.20996h0.22396h0.20996h0.22396h0.22396h0.20996h0.22396h0.19596h0.20996h0.22396h0.20996h0.22396h0.20996h0.22396h0.22396h0.20996v-0.22396v-0.19597v-0.22396v-0.20996v-0.20996v-0.20995v-0.22396v-0.22396v-0.19597v-0.22396v-0.20996v-0.19597v-0.22396v-0.20996v-0.19597v-0.22396h-0.20996h-0.22396h-0.22396h-0.20996h-0.22396h-0.20996h-0.22396h-0.20996h-0.19596h-0.22396h-0.20996h-0.22396h-0.22396h-0.20996h-0.22396h-0.20996h-0.22396h-0.22396h-0.20996h-0.22396h-0.20996h-0.22396h-0.20995h-0.22396h-0.22396h-0.20996h-0.19597h-0.22396h-0.22396h-0.20996h-0.22396h-0.20996h-0.20996h-0.22396h-0.22396v-0.22396v-0.20995v-0.22396v-0.22396v-0.20996v-0.22396v-0.19597v-0.22396v-0.20996v-0.22396v-0.22396v-0.20996h0.22396h0.22396h0.20996h0.20996h0.22396h0.20996h0.20996h0.20996h0.22396h0.20996h0.22396h0.22396h0.20995h0.22396h0.20996h0.22396h0.20996h0.22396h0.22396h0.19597h0.20996h0.22396h0.22396h0.20996h0.20995h0.22396h0.22396h0.20996h0.22396h0.20996h0.22396h0.20996h0.20996h0.20996h0.20996h0.22396h0.22396h0.22396h0.20996v-0.22396v-0.19596v-0.22396v-0.20996v-0.22396v-0.19597v-0.22396v-0.20996v-0.19597v-0.22396v-0.20996v-0.20996v-0.20995v-0.22396v-0.22396v-0.19597v-0.20996h-0.20996h-0.22396h-0.22396h-0.22396h-0.20996h-0.20996h-0.22396h-0.20996h-0.22396h-0.22396h-0.20996h-0.22396h-0.22396h-0.20996h-0.19596h-0.20996h-0.22396h-0.22396h-0.20996h-0.22396h-0.22396h-0.20996h-0.22396h-0.20996h-0.22396h-0.22396h-0.20996h-0.22396h-0.20996h-0.20995h-0.22396h-0.22396h-0.22396h-0.20996h-0.22396h-0.20996h-0.22396h-0.20996h-0.22396h-0.22396h-0.20996h-0.20996h-0.22396h-0.20996h-0.20996h-0.20996h-0.22396h-0.22396h-0.20995h-0.22396h-0.20996h-0.20996h-0.22396h-0.22396h-0.22396h-0.20996h-0.22396zM69.74902,111.16732l0.08398,0.19596l0.06999,0.20996l0.08398,0.22396l0.08398,0.19597l0.06999,0.19597l0.08398,0.20996l0.08398,0.22396l0.06999,0.19597l0.08398,0.19596l0.08398,0.20996l0.06999,0.19597l0.08398,0.20996l0.06999,0.20996l0.08398,0.19596l0.08398,0.19597l0.06999,0.20996l0.08398,0.20996l0.08398,0.20996l0.06999,0.19597l0.08398,0.19596l0.08398,0.22396l0.06999,0.20996l0.08398,0.19597l-0.20996,-0.05599h-0.20996h-0.20996h-0.22396h-0.20996h-0.22396h-0.22396h-0.20996h-0.19596h-0.22396h-0.22396h-0.20996h-0.20996h-0.22396h-0.22396h-0.20996h-0.22396l0.08398,-0.19596l0.06999,-0.20996l0.08398,-0.22396l0.08398,-0.19597l0.06999,-0.19597l0.08398,-0.20996l0.08398,-0.20995l0.08398,-0.20996l0.06999,-0.19597l0.08398,-0.19597l0.09798,-0.16797l0.06999,-0.22396l0.08398,-0.19597l0.08398,-0.20996l0.06999,-0.19597l0.08398,-0.19596l0.08398,-0.22396l0.08398,-0.20996l0.06999,-0.19597l0.08398,-0.16797l0.09798,-0.22396l0.05599,-0.20996zM66.22168,130.87565c-0.50167,0 -0.65463,0.674 -0.19596,0.88184l19.3304,8.80436c0.12183,0.05733 0.2561,0.05017 0.37793,0l20.15625,-8.79036c0.45867,-0.20067 0.3057,-0.89583 -0.19597,-0.89583z"></path></g></g></svg>